<svg width="280" height="200" viewBox="0 0 280 200" fill="none" xmlns="http://www.w3.org/2000/svg">
<path opacity="0.12" d="M48.834 168.63C68.574 189.36 92.544 191.23 108.744 190.95C141.564 190.39 144.424 149.56 188.134 140.49C213.314 135.27 233.174 134.05 244.954 121.7C253.204 113.06 251.654 97.87 248.704 88.88C239.034 59.45 198.914 49.97 188.044 47.39C117.874 30.81 31.254 73.39 30.414 111.37C30.094 125.65 30.894 149.79 48.834 168.63Z" fill="#20BDA0"/>
<path opacity="0.12" d="M23.9838 40.4799C51.0038 15.3899 102.954 40.8999 110.484 44.7599C138.184 58.9499 137.074 73.0199 155.874 76.4499C193.464 83.3099 217.084 30.5599 245.804 39.6199C263.384 45.1699 272.854 70.7099 271.494 90.1499C269.644 116.66 247.384 135.62 228.674 143.25C192.744 157.9 174.944 128.7 112.194 127.83C64.1238 127.16 48.4138 143.93 29.9738 130.4C6.38384 113.1 0.383845 62.3999 23.9838 40.4799Z" fill="#20BDA0"/>
<path d="M37.0339 141.05V115.69H37.5839L54.4639 135.13V115.69H56.9639V141.05H56.3939L39.6539 121.85V141.05H37.0339Z" fill="#20BDA0"/>
<path d="M75.2139 115.06C79.0539 115.06 82.2739 116.34 84.8539 118.9C87.4439 121.46 88.7339 124.62 88.7339 128.36C88.7339 132.1 87.4439 135.22 84.8639 137.81C82.2839 140.4 79.1339 141.69 75.4239 141.69C71.7139 141.69 68.4839 140.4 65.9039 137.83C63.3139 135.26 62.0239 132.14 62.0239 128.49C62.0239 126.05 62.6139 123.79 63.7939 121.71C64.9739 119.63 66.5839 118 68.6139 116.82C70.6439 115.64 72.8539 115.05 75.2239 115.05L75.2139 115.06ZM75.3239 117.52C73.4439 117.52 71.6639 118.01 69.9839 118.99C68.3039 119.97 66.9939 121.29 66.0439 122.94C65.1039 124.6 64.6239 126.44 64.6239 128.48C64.6239 131.49 65.6639 134.04 67.7539 136.12C69.8439 138.2 72.3639 139.23 75.3039 139.23C77.2739 139.23 79.0939 138.75 80.7639 137.8C82.4439 136.85 83.7439 135.54 84.6839 133.88C85.6239 132.22 86.0939 130.38 86.0939 128.36C86.0939 126.34 85.6239 124.53 84.6839 122.9C83.7439 121.27 82.4239 119.97 80.7239 118.99C79.0239 118.01 77.2139 117.52 75.3039 117.52H75.3239Z" fill="#20BDA0"/>
<path d="M91.3039 118.17V115.69H105.194V118.17H99.5439V141.05H96.9539V118.17H91.2939H91.3039Z" fill="#20BDA0"/>
<path d="M118.634 115.69H131.344V118.17H121.174V126.12H131.344V128.6H121.174V141.05H118.644V115.69H118.634Z" fill="#20BDA0"/>
<path d="M147.824 115.06C151.664 115.06 154.884 116.34 157.464 118.9C160.054 121.46 161.344 124.62 161.344 128.36C161.344 132.1 160.054 135.22 157.474 137.81C154.894 140.4 151.744 141.69 148.034 141.69C144.324 141.69 141.094 140.4 138.514 137.83C135.924 135.26 134.634 132.14 134.634 128.49C134.634 126.05 135.224 123.79 136.404 121.71C137.584 119.63 139.194 118 141.224 116.82C143.254 115.64 145.464 115.05 147.834 115.05L147.824 115.06ZM147.944 117.52C146.064 117.52 144.284 118.01 142.604 118.99C140.924 119.97 139.614 121.29 138.664 122.94C137.724 124.6 137.244 126.44 137.244 128.48C137.244 131.49 138.284 134.04 140.374 136.12C142.464 138.2 144.984 139.23 147.924 139.23C149.894 139.23 151.714 138.75 153.384 137.8C155.054 136.85 156.364 135.54 157.304 133.88C158.244 132.22 158.714 130.38 158.714 128.36C158.714 126.34 158.244 124.53 157.304 122.9C156.364 121.27 155.044 119.97 153.344 118.99C151.644 118.01 149.834 117.52 147.924 117.52H147.944Z" fill="#20BDA0"/>
<path d="M166.524 115.69H169.054V131C169.054 132.82 169.084 133.95 169.154 134.4C169.284 135.4 169.574 136.24 170.034 136.91C170.494 137.58 171.204 138.15 172.154 138.6C173.104 139.05 174.064 139.28 175.034 139.28C175.874 139.28 176.674 139.1 177.444 138.75C178.214 138.4 178.854 137.9 179.374 137.27C179.894 136.64 180.274 135.87 180.514 134.98C180.684 134.34 180.774 133.01 180.774 131.01V115.7H183.304V131.01C183.304 133.27 183.084 135.1 182.644 136.5C182.204 137.9 181.314 139.11 179.984 140.15C178.654 141.19 177.054 141.7 175.164 141.7C173.114 141.7 171.364 141.21 169.904 140.23C168.444 139.25 167.464 137.96 166.974 136.35C166.664 135.36 166.504 133.58 166.504 131.01V115.7L166.524 115.69Z" fill="#20BDA0"/>
<path d="M189.574 141.05V115.69H190.124L207.004 135.13V115.69H209.504V141.05H208.934L192.194 121.85V141.05H189.574Z" fill="#20BDA0"/>
<path d="M215.674 141.05V115.69H220.934C224.724 115.69 227.474 115.99 229.194 116.6C231.654 117.46 233.574 118.96 234.964 121.08C236.344 123.21 237.044 125.74 237.044 128.68C237.044 131.22 236.494 133.46 235.394 135.39C234.294 137.32 232.874 138.75 231.114 139.67C229.364 140.59 226.904 141.05 223.744 141.05H215.674ZM218.104 138.66H221.034C224.544 138.66 226.974 138.44 228.324 138C230.234 137.38 231.734 136.26 232.824 134.65C233.914 133.04 234.464 131.07 234.464 128.73C234.464 126.39 233.874 124.19 232.684 122.46C231.504 120.73 229.854 119.54 227.734 118.89C226.144 118.41 223.534 118.17 219.894 118.17H218.104V138.65V138.66Z" fill="#20BDA0"/>
<path d="M83.4138 80.93H94.6338V85.7H83.4138V105.56H78.1238V85.7H35.4438V81.06L77.2238 10.79H83.4138V80.94V80.93ZM78.1238 80.93V18.65H77.8638L41.6238 80.93H78.1138H78.1238Z" fill="#20BDA0"/>
<path d="M162.454 77.58C162.194 86.43 159.704 93.61 154.974 99.12C150.164 104.62 143.624 107.37 135.374 107.37C127.124 107.37 120.374 104.62 115.644 99.12C110.914 93.62 108.424 86.4 108.164 77.46C107.994 71.7 107.904 65.25 107.904 58.12C107.904 50.99 107.984 44.58 108.164 38.91C108.424 29.97 110.954 22.75 115.774 17.25C120.414 11.75 126.944 9 135.374 9C143.804 9 150.244 11.75 154.974 17.25C159.704 22.75 162.194 30.02 162.454 39.04C162.624 44.71 162.714 51.12 162.714 58.25C162.714 65.38 162.624 71.75 162.454 77.59V77.58ZM113.454 75.91C113.714 83.9 115.564 90.31 118.994 95.12C122.514 100.02 127.974 102.47 135.374 102.47C142.774 102.47 148.184 100.02 151.624 95.12C155.064 90.31 156.914 83.9 157.164 75.91C157.334 70.58 157.424 64.65 157.424 58.11C157.424 51.57 157.334 45.6 157.164 40.44C156.904 32.44 155.054 26.04 151.624 21.23C148.184 16.33 142.764 13.88 135.374 13.88C127.984 13.88 122.524 16.33 118.994 21.23C115.554 26.04 113.704 32.45 113.454 40.44C113.284 45.68 113.194 51.57 113.194 58.11C113.194 64.65 113.274 70.58 113.454 75.91Z" fill="#20BDA0"/>
<path d="M224.224 80.93H235.444V85.7H224.224V105.56H218.934V85.7H176.254V81.06L218.034 10.79H224.224V80.94V80.93ZM218.934 80.93V18.65H218.674L182.434 80.93H218.924H218.934Z" fill="#20BDA0"/>
</svg>
