<?xml version="1.0" encoding="UTF-8"?>
<svg id="_图层_1" data-name="图层 1" xmlns="http://www.w3.org/2000/svg" viewBox="0 0 24 24">
  <defs>
    <style>
      .cls-1 {
        fill: #b3b3b3;
      }

      .cls-1, .cls-2, .cls-3 {
        stroke-width: 0px;
      }

      .cls-2 {
        fill: #48b8a2;
      }

      .cls-3 {
        fill: #fff;
      }
    </style>
  </defs>
  <g>
    <polygon class="cls-3" points="3.83 22.3 8.17 19.8 8.17 17.28 6.02 16.04 3.83 17.3 3.83 22.3"/>
    <path class="cls-3" d="M5.33,11.61v-2.9c0-.24.13-.46.33-.58.21-.12.46-.12.67,0h.01s1.82,1.06,1.82,1.06V1.7l-4.33,2.5v8.27l1.5-.86h0Z"/>
  </g>
  <polygon class="cls-1" points="15.83 16.3 20.17 13.8 20.17 11.28 18.02 10.04 15.83 11.3 15.83 16.3"/>
  <polygon class="cls-2" points="9.84 7.2 9.84 10.19 9.83 10.19 9.84 10.23 9.84 14.3 9.83 14.3 9.83 19.3 14.17 16.8 14.17 15.69 14.17 14.28 14.17 12.19 14.17 10.19 14.17 4.7 9.84 7.2"/>
</svg>