<svg width="157" height="125" viewBox="0 0 157 125" fill="none" xmlns="http://www.w3.org/2000/svg">
<path fill-rule="evenodd" clip-rule="evenodd" d="M0.488104 52.6512C-1.58331 44.0662 3.12877 35.2792 11.013 33.0253L124.617 0.531217C132.501 -1.72369 140.57 3.40747 142.64 11.9927L155.984 67.3066C158.056 75.8917 153.344 84.6786 145.459 86.9325L31.8556 119.426C23.9714 121.681 15.9017 116.55 13.8303 107.965L0.488104 52.6512Z" fill="#24D3B3"/>
<path fill-rule="evenodd" clip-rule="evenodd" d="M74.5061 103.24L92.9029 120.78L101.009 95.6596L74.5061 103.24Z" fill="#24D3B3"/>
<path d="M47.5139 80.6474L42.0375 56.0906L45.2588 55.2388L47.6344 65.8911L59.2376 62.823L56.862 52.1707L60.0833 51.3189L65.5597 75.8757L62.3384 76.7275L59.8889 65.7433L48.2856 68.8114L50.7352 79.7956L47.5139 80.6474ZM78.4855 72.8093C77.0611 73.1859 75.7663 73.2589 74.601 73.0282C73.4526 72.7696 72.4401 72.2876 71.5634 71.5823C70.7087 70.8712 69.9986 70.0282 69.433 69.0532C68.8626 68.056 68.4515 66.9933 68.1999 65.8651C67.9532 64.7589 67.8624 63.6232 67.9275 62.4581C68.0144 61.2871 68.2879 60.1723 68.748 59.1135C69.2299 58.049 69.9182 57.129 70.8127 56.3536C71.7243 55.5503 72.8813 54.9633 74.2837 54.5924C75.7739 54.1984 77.1651 54.1937 78.4576 54.5782C79.75 54.9627 80.8754 55.7428 81.8338 56.9185C82.7922 58.0942 83.4983 59.6997 83.9522 61.735L84.1594 62.6642L71.5701 65.993C71.8578 66.9712 72.2927 67.8285 72.8746 68.5648C73.4735 69.2733 74.2022 69.7835 75.0608 70.0953C75.9144 70.385 76.8561 70.3937 77.8861 70.1213C78.7845 69.8838 79.4756 69.5488 79.9593 69.1163C80.46 68.6559 80.8303 68.1832 81.0702 67.698C81.3101 67.2129 81.4527 66.812 81.4982 66.4955C81.5606 66.151 81.5918 65.9787 81.5918 65.9787L84.5172 65.2052C84.5172 65.2052 84.5069 65.4188 84.4861 65.846C84.4604 66.251 84.3668 66.7678 84.2053 67.3962C84.0437 68.0246 83.7532 68.6988 83.3336 69.4189C82.9091 70.1168 82.314 70.7779 81.5481 71.4021C80.7774 72.0042 79.7565 72.4732 78.4855 72.8093ZM71.0553 63.5287L80.5548 61.0168C80.2545 59.878 79.8062 59.0126 79.21 58.4205C78.609 57.8063 77.9293 57.4121 77.171 57.2377C76.4128 57.0634 75.6502 57.0776 74.8832 57.2804C73.5026 57.6454 72.4752 58.3974 71.801 59.5362C71.1218 60.6529 70.8732 61.9837 71.0553 63.5287ZM91.1119 75.9719C90.6079 76.1051 90.1757 76.196 89.8152 76.2445C89.4547 76.2929 89.2745 76.3171 89.2745 76.3171L88.675 73.6292C88.675 73.6292 88.8528 73.5939 89.2083 73.5233C89.5907 73.469 89.9901 73.3869 90.4065 73.2768C91.6994 72.9349 92.6896 72.3802 93.377 71.6128C94.0913 70.8616 94.5952 69.7913 94.8887 68.4017L84.1688 52.3301L87.4229 51.4696L95.5159 63.8783L97.5141 48.8013L100.801 47.9321L97.9924 67.335C97.6312 69.7733 96.8872 71.692 95.7604 73.0911C94.6556 74.4843 93.1061 75.4446 91.1119 75.9719ZM107.609 58.01L103.422 39.8594L106.544 39.0338L110.403 57.2712L107.609 58.01ZM110.543 64.2977C109.951 64.4541 109.413 64.3854 108.93 64.0915C108.469 63.7918 108.177 63.3654 108.053 62.8123C107.925 62.2371 108.003 61.7011 108.286 61.2044C108.592 60.7019 109.041 60.3724 109.632 60.2159C110.202 60.0653 110.729 60.1369 111.212 60.4308C111.695 60.7248 112.001 61.1593 112.129 61.7345C112.252 62.2876 112.161 62.8154 111.856 63.3179C111.55 63.8204 111.112 64.147 110.543 64.2977Z" fill="white"/>
</svg>
