<?xml version="1.0" encoding="UTF-8"?>
<svg id="_图层_1" data-name="图层 1" xmlns="http://www.w3.org/2000/svg" viewBox="0 0 24 24">
  <defs>
    <style>
      /* 动画1: 路径绘制、描边消失、填充出现 */
      @keyframes draw-fill-fade {
        0% {
          stroke-opacity: 1;
          fill-opacity: 0;
          stroke-dashoffset: var(--path-length);
        }
        50% {
          stroke-dashoffset: 0;
          stroke-opacity: 1;
          fill-opacity: 0;
        }
        70% {
          stroke-opacity: 0;
          fill-opacity: 1;
        }
        100% {
          stroke-dashoffset: 0;
          stroke-opacity: 0;
          fill-opacity: 1;
        }
      }

      /* 动画路径的基础样式 */
      .animated-path {
        stroke-width: 0.5px;
        animation:
          draw-fill-fade 4s linear infinite;
      }

      /* 深灰色部分（小） */
      .shape-dark-small {
        --path-length: 18;
        fill: #3d3a39;
        stroke: #3d3a39;
        stroke-dasharray: var(--path-length);
        stroke-dashoffset: var(--path-length);
      }

      /* 深灰色部分（大） */
      .shape-dark-large {
        --path-length: 29;
        fill: #3d3a39;
        stroke: #3d3a39;
        stroke-dasharray: var(--path-length);
        stroke-dashoffset: var(--path-length);
      }

      /* 浅灰色部分 */
      .shape-gray {
        --path-length: 18;
        fill: #b3b3b3;
        stroke: #b3b3b3;
        stroke-dasharray: var(--path-length);
        stroke-dashoffset: var(--path-length);
      }

      /* 绿色部分 */
      .shape-green {
        --path-length: 34;
        fill: #48b8a2;
        stroke: #48b8a2;
        stroke-dasharray: var(--path-length);
        stroke-dashoffset: var(--path-length);
      }
    </style>
  </defs>
  <!--
    添加一个外层容器<g>用于实现整体旋转，
    而内部的<path>则负责各自的绘制和位移动画
  -->
  <g id="logo-rotator">
    <g>
      <!-- 深灰色多边形（小） -->
      <polygon
        class="animated-path shape-dark-small"
        points="3.83 22.3 8.17 19.8 8.17 17.28 6.02 16.04 3.83 17.3 3.83 22.3"
      />
      <!-- 深灰色路径（大） -->
      <path
        class="animated-path shape-dark-large"
        d="M5.33,11.61v-2.9c0-.24.13-.46.33-.58.21-.12.46-.12.67,0h.01s1.82,1.06,1.82,1.06V1.7l-4.33,2.5v8.27l1.5-.86h0Z"
      />
    </g>
    <!-- 浅灰色多边形 -->
    <polygon
      class="animated-path shape-gray"
      points="15.83 16.3 20.17 13.8 20.17 11.28 18.02 10.04 15.83 11.3 15.83 16.3"
    />
    <!-- 绿色多边形 -->
    <polygon
      class="animated-path shape-green"
      points="9.84 7.2 9.84 10.19 9.83 10.19 9.84 10.23 9.84 14.3 9.83 14.3 9.83 19.3 14.17 16.8 14.17 15.69 14.17 14.28 14.17 12.19 14.17 10.19 14.17 4.7 9.84 7.2"
    />
  </g>
</svg>