<svg width="50" height="50" viewBox="0 0 50 50" fill="none" xmlns="http://www.w3.org/2000/svg">
<g clip-path="url(#clip0_222_40229)">
<path d="M46 0H4C1.79086 0 0 1.79086 0 4V46C0 48.2091 1.79086 50 4 50H46C48.2091 50 50 48.2091 50 46V4C50 1.79086 48.2091 0 46 0Z" fill="#D9D9D9"/>
<path d="M7.17016 31.87V41.6C7.17016 42.37 7.80016 43 8.57016 43H41.7702C42.5402 43 43.1702 42.37 43.1702 41.6V18.95C43.1702 17.7 41.6602 17.08 40.7802 17.96L28.3402 30.4C27.8902 30.85 27.1802 30.94 26.6302 30.61C20.9002 27.16 13.7302 27.15 7.99016 30.58L7.84016 30.67C7.42016 30.92 7.16016 31.38 7.16016 31.87H7.17016Z" fill="white"/>
<path d="M13.1699 19C16.4836 19 19.1699 16.3137 19.1699 13C19.1699 9.68629 16.4836 7 13.1699 7C9.85621 7 7.16992 9.68629 7.16992 13C7.16992 16.3137 9.85621 19 13.1699 19Z" fill="white"/>
</g>
<defs>
<clipPath id="clip0_222_40229">
<rect width="50" height="50" fill="white"/>
</clipPath>
</defs>
</svg>
