<svg width="50" height="50" viewBox="0 0 50 50" fill="none" xmlns="http://www.w3.org/2000/svg">
<g clip-path="url(#clip0_231_40390)">
<path d="M46 0H4C1.79086 0 0 1.79086 0 4V46C0 48.2091 1.79086 50 4 50H46C48.2091 50 50 48.2091 50 46V4C50 1.79086 48.2091 0 46 0Z" fill="#5ECBB7"/>
<path d="M22.3602 6.5H6.66023L6.49023 12.24H8.54023L9.44023 8.35H12.5802C12.6202 10.58 12.6202 12.88 12.6202 15.1V16.31C12.6202 18.51 12.6202 20.78 12.5802 22.98L9.96023 23.19V24.91H19.0602V23.19L16.4502 22.98C16.4302 20.76 16.4302 18.52 16.4302 16.28V15.1C16.4302 12.83 16.4302 10.58 16.4502 8.35H19.6102L20.4902 12.24H22.5702L22.3702 6.5H22.3602Z" fill="white"/>
<path d="M44.1899 31.26H8.18994V33.26H44.1899V31.26Z" fill="white"/>
<path d="M44.1899 39.92H8.18994V41.92H44.1899V39.92Z" fill="white"/>
<path d="M44.1899 13.92H26.1899V15.92H44.1899V13.92Z" fill="white"/>
<path d="M44.1899 22.59H26.1899V24.59H44.1899V22.59Z" fill="white"/>
</g>
<defs>
<clipPath id="clip0_231_40390">
<rect width="50" height="50" fill="white"/>
</clipPath>
</defs>
</svg>
